<?xml version="1.0" standalone="no"?>
<!DOCTYPE svg PUBLIC "-//W3C//DTD SVG 20010904//EN"
 "http://www.w3.org/TR/2001/REC-SVG-20010904/DTD/svg10.dtd">
<svg version="1.0" xmlns="http://www.w3.org/2000/svg"
 width="16.000000pt" height="16.000000pt" viewBox="0 0 16.000000 16.000000"
 preserveAspectRatio="xMidYMid meet">
<metadata>
Created by potrace 1.11, written by Peter Selinger 2001-2013
</metadata>
<g transform="translate(0.000000,16.000000) scale(0.002286,-0.002286)"
fill="#000000" stroke="none">
<path d="M397 6603 c-4 -3 -7 -503 -7 -1110 l0 -1103 445 0 445 0 0 665 0 665
665 0 665 0 0 445 0 445 -1103 0 c-607 0 -1107 -3 -1110 -7z"/>
<path d="M4390 6165 l0 -445 665 0 665 0 0 -665 0 -665 445 0 445 0 -2 1108
-3 1107 -1107 3 -1108 2 0 -445z"/>
<path d="M3055 5690 l-440 -440 253 0 252 0 0 -375 0 -375 -405 0 c-386 0
-407 -1 -460 -21 -76 -28 -156 -108 -184 -184 -21 -56 -21 -61 -21 -1245 l0
-1189 22 -58 c29 -77 104 -152 181 -181 l58 -22 1189 0 1189 0 58 22 c77 29
152 104 181 181 l22 58 0 1189 0 1189 -22 58 c-29 77 -104 152 -181 181 -56
21 -73 22 -462 22 l-405 0 0 375 0 375 252 0 253 0 -440 440 c-242 242 -442
440 -445 440 -3 0 -203 -198 -445 -440z m1220 -3130 l356 -475 -565 -3 c-311
-1 -820 -1 -1131 0 l-565 3 276 355 c152 195 279 358 283 362 4 4 96 -100 206
-232 110 -132 202 -240 205 -239 3 0 130 162 284 360 153 198 282 357 287 352
4 -4 168 -222 364 -483z"/>
<path d="M392 1503 l3 -1108 1108 -3 1107 -2 0 445 0 445 -665 0 -665 0 0 665
0 665 -445 0 -445 0 2 -1107z"/>
<path d="M5720 1945 l0 -665 -665 0 -665 0 0 -445 0 -445 1108 2 1107 3 3
1108 2 1107 -445 0 -445 0 0 -665z"/>
</g>
</svg>
